<?xml version='1.0' encoding='utf-8'?>
<svg xmlns="http://www.w3.org/2000/svg" xmlns:ns1="http://www.w3.org/1999/xlink" xml:space="preserve" width="180px" height="45px" version="1.1" style="shape-rendering:geometricPrecision; text-rendering:geometricPrecision; image-rendering:optimizeQuality; fill-rule:evenodd; clip-rule:evenodd" viewBox="0 0 1254.98 459.21">
 <defs>
  <style type="text/css">
   
    .fil3 {fill:#0439CF;fill-rule:nonzero}
    .fil0 {fill:url(#id0)}
    .fil1 {fill:url(#id1);fill-rule:nonzero}
    .fil2 {fill:url(#id2);fill-rule:nonzero}
   
  </style>
  <linearGradient id="id0" gradientUnits="userSpaceOnUse" x1="-0" y1="229.6" x2="356.72" y2="229.6">
   <stop offset="0" style="stop-opacity:1; stop-color:#0077BD" />
   <stop offset="1" style="stop-opacity:1; stop-color:#1C4D86" />
  </linearGradient>
  <linearGradient id="id1" gradientUnits="userSpaceOnUse" x1="187.7" y1="453.09" x2="187.71" y2="23.36">
   <stop offset="0" style="stop-opacity:1; stop-color:#0033CC" />
   <stop offset="1" style="stop-opacity:1; stop-color:#2E76F2" />
  </linearGradient>
  <linearGradient id="id2" gradientUnits="userSpaceOnUse" ns1:href="#id1" x1="154.99" y1="50.44" x2="157.65" y2="430.68">
  </linearGradient>
 </defs>
 <g id="Capa_x0020_1">
  <metadata id="CorelCorpID_0Corel-Layer" />
  <g id="_2114423446976">
   <g>
    <path class="fil0" d="M356.73 353.71l0 -70.22 -66.83 0 0 70.22c0,21.31 -17.29,38.69 -38.61,38.69l-145.85 0c-21.31,0 -38.63,-17.37 -38.63,-38.69l0 -248.21c0,-21.31 17.31,-38.7 38.63,-38.7l145.85 0c21.31,0 38.61,17.38 38.61,38.7l0 63.07 66.83 0 0 -63.07c0,-58.19 -47.31,-105.5 -105.44,-105.5l-145.85 0c-58.13,0 -105.44,47.3 -105.44,105.5l0 248.21c0,58.19 47.3,105.5 105.44,105.5l145.85 0c58.12,0 105.44,-47.3 105.44,-105.5z" />
    <path class="fil1" d="M289.91 168.56l0 -63.07c0,-21.31 -17.31,-38.69 -38.62,-38.69l-145.85 0c-21.31,0 -38.62,17.37 -38.62,38.69l0 248.21c0,21.31 17.3,38.69 38.62,38.69l145.85 0c21.31,0 38.62,-17.37 38.62,-38.69l0 -70.22 66.81 0 0 70.22c0,58.19 -47.3,105.5 -105.43,105.5l-145.85 0c-58.13,0 -105.44,-47.3 -105.44,-105.5l0 -248.21c0,-58.19 47.3,-105.5 105.44,-105.5l145.85 0c58.12,0 105.43,47.3 105.43,105.5l0 63.07 -66.81 0z" />
    <path class="fil2" d="M289.91 168.56l0 -63.07c0,-21.31 -17.31,-38.69 -38.62,-38.69l-145.85 0c-21.31,0 -38.62,17.37 -38.62,38.69l0 248.21c0,21.31 17.3,38.69 38.62,38.69l145.85 0c21.31,0 38.62,-17.37 38.62,-38.69l0 -70.22 39.35 0 0 53.98c0,50.52 -40.02,91.6 -89.19,91.6l-123.4 0c-49.18,0 -89.2,-41.09 -89.2,-91.6l0 -215.74c0,-50.52 40.02,-91.6 89.2,-91.6l123.4 0c49.17,0 89.19,41.09 89.19,91.6l0 46.83 -39.35 0z" />
    <polygon class="fil3" points="252.88,326.55 104.44,326.55 104.44,104.28 252.88,104.28 " />
    <path class="fil3" d="M196.81 356.27c0,8.47 -6.86,15.34 -15.33,15.34 -8.47,0 -15.33,-6.87 -15.33,-15.34 0,-8.47 6.86,-15.34 15.33,-15.34 8.47,0 15.33,6.87 15.33,15.34z" />
   </g>
   <g>
    <path class="fil3" d="M431.88 152.09l19.9 0 0 80.48 28.99 0 0 17.86 -48.89 0 0 -98.33zm145.2 15.85c-9.69,0 -17.82,3.16 -24.41,9.48 -6.6,6.34 -9.89,14.39 -9.89,24.13 0,10.89 4.16,19.49 12.45,25.81 6.44,4.95 13.84,7.42 22.19,7.42 9.44,0 17.47,-3.22 24.12,-9.62 6.64,-6.42 9.96,-14.33 9.96,-23.74 0,-9.35 -3.35,-17.27 -10.03,-23.77 -6.69,-6.48 -14.82,-9.71 -24.4,-9.71zm0.2 -18.32c14.8,0 27.51,5.04 38.16,15.1 10.64,10.08 15.96,22.36 15.96,36.83 0,14.36 -5.25,26.5 -15.75,36.44 -10.49,9.93 -23.23,14.9 -38.22,14.9 -15.69,0 -28.73,-5.11 -39.11,-15.31 -10.39,-10.21 -15.57,-22.33 -15.57,-36.36 0,-9.4 2.42,-18.05 7.25,-25.94 4.83,-7.89 11.48,-14.13 19.95,-18.75 8.46,-4.61 17.57,-6.92 27.33,-6.92zm201.42 18.51l-14.01 13.03c-8.87,-8.81 -19.21,-13.22 -31.02,-13.22 -10.29,0 -18.9,3.2 -25.86,9.61 -6.94,6.42 -10.41,14.22 -10.41,23.4 0,9.49 3.59,17.53 10.8,24.13 7.21,6.6 16.11,9.89 26.69,9.89 6.88,0 12.67,-1.35 17.39,-4.07 4.72,-2.73 8.53,-6.98 11.41,-12.78l-30.28 0 0 -17.57 52.59 0 0.14 4.13c0,8.62 -2.36,16.76 -7.1,24.48 -4.74,7.71 -10.87,13.59 -18.41,17.65 -7.54,4.06 -16.37,6.08 -26.5,6.08 -10.85,0 -20.53,-2.21 -29.03,-6.64 -8.51,-4.44 -15.24,-10.76 -20.2,-18.96 -4.94,-8.19 -7.42,-17.04 -7.42,-26.53 0,-13.01 4.59,-24.34 13.73,-33.96 10.85,-11.45 24.96,-17.17 42.35,-17.17 9.09,0 17.6,1.57 25.5,4.74 6.69,2.68 13.23,7.26 19.63,13.77zm56.32 -16.04l19.76 0 0 98.33 -19.76 0 0 -98.33zm63.86 0l57.79 0 0 18.46 -19.04 0 0 79.87 -20.2 0 0 -79.87 -18.55 0 0 -18.46zm103.53 0l57.07 0 0 18.32 -37.31 0 0 17.78 37.31 0 0 17.98 -37.31 0 0 25.87 37.31 0 0 18.38 -57.07 0 0 -98.33zm107.63 0l19.9 0 0 80.48 28.99 0 0 17.86 -48.89 0 0 -98.33zm96.05 0l19.9 0 0 80.48 28.99 0 0 17.86 -48.89 0 0 -98.33z" />
    <path class="fil3" d="M453.47 278l-5.01 4.42c-1.75,-2.45 -3.55,-3.67 -5.37,-3.67 -0.89,0 -1.62,0.25 -2.18,0.71 -0.56,0.47 -0.84,1.01 -0.84,1.61 0,0.59 0.2,1.16 0.6,1.69 0.54,0.71 2.19,2.23 4.95,4.56 2.59,2.16 4.14,3.53 4.7,4.08 1.36,1.39 2.33,2.72 2.92,3.98 0.56,1.26 0.85,2.64 0.85,4.14 0,2.92 -1.01,5.32 -3.01,7.21 -2.02,1.91 -4.64,2.86 -7.89,2.86 -2.53,0 -4.73,-0.61 -6.62,-1.86 -1.87,-1.24 -3.48,-3.19 -4.81,-5.84l5.68 -3.43c1.71,3.13 3.68,4.7 5.9,4.7 1.16,0 2.13,-0.34 2.92,-1.02 0.79,-0.67 1.19,-1.45 1.19,-2.34 0,-0.8 -0.3,-1.61 -0.9,-2.42 -0.59,-0.79 -1.91,-2.04 -3.94,-3.69 -3.86,-3.16 -6.36,-5.59 -7.5,-7.3 -1.13,-1.71 -1.69,-3.43 -1.69,-5.14 0,-2.46 0.94,-4.58 2.83,-6.34 1.87,-1.76 4.19,-2.64 6.94,-2.64 1.78,0 3.47,0.42 5.07,1.24 1.61,0.82 3.34,2.31 5.22,4.49z" />
    <path class="fil3" d="M481.21 278.89c-3.29,0 -6.07,1.15 -8.3,3.44 -2.23,2.28 -3.36,5.19 -3.36,8.71 0,3.93 1.41,7.05 4.23,9.33 2.19,1.79 4.71,2.69 7.55,2.69 3.2,0 5.94,-1.16 8.19,-3.48 2.26,-2.31 3.39,-5.18 3.39,-8.57 0,-3.39 -1.14,-6.26 -3.42,-8.6 -2.26,-2.34 -5.03,-3.52 -8.28,-3.52zm0.07 -6.61c5.02,0 9.35,1.82 12.96,5.45 3.62,3.65 5.43,8.08 5.43,13.3 0,5.19 -1.79,9.58 -5.36,13.17 -3.57,3.59 -7.9,5.38 -12.98,5.38 -5.34,0 -9.76,-1.83 -13.29,-5.52 -3.53,-3.69 -5.3,-8.06 -5.3,-13.13 0,-3.4 0.82,-6.52 2.46,-9.38 1.65,-2.85 3.9,-5.11 6.79,-6.77 2.87,-1.67 5.97,-2.5 9.29,-2.5z" />
    <polygon class="fil3" points="510.01,273.17 516.77,273.17 516.77,302.25 526.63,302.25 526.63,308.7 510.01,308.7 " />
    <path class="fil3" d="M535.48 273.17l6.78 0 0 22.98c0,1.99 0.18,3.38 0.52,4.2 0.35,0.83 0.92,1.47 1.72,1.98 0.79,0.48 1.76,0.73 2.88,0.73 1.2,0 2.22,-0.28 3.08,-0.82 0.86,-0.54 1.46,-1.25 1.79,-2.09 0.34,-0.84 0.49,-2.46 0.49,-4.83l0 -22.14 6.79 0 0 21.19c0,3.57 -0.2,6.06 -0.6,7.43 -0.41,1.39 -1.18,2.73 -2.31,4.01 -1.14,1.29 -2.44,2.25 -3.92,2.87 -1.48,0.61 -3.2,0.93 -5.17,0.93 -2.58,0 -4.82,-0.59 -6.72,-1.78 -1.91,-1.18 -3.28,-2.66 -4.1,-4.45 -0.82,-1.77 -1.23,-4.78 -1.23,-9.01l0 -21.19z" />
    <path class="fil3" d="M603.99 279.42l-4.73 4.52c-3.21,-3.41 -6.83,-5.11 -10.86,-5.11 -3.4,0 -6.25,1.16 -8.58,3.48 -2.33,2.33 -3.49,5.19 -3.49,8.59 0,2.37 0.52,4.48 1.55,6.31 1.03,1.83 2.48,3.27 4.37,4.33 1.88,1.05 3.96,1.57 6.27,1.57 1.96,0 3.75,-0.38 5.39,-1.1 1.61,-0.74 3.4,-2.08 5.35,-4l4.59 4.77c-2.63,2.56 -5.1,4.34 -7.44,5.34 -2.33,0.99 -5,1.48 -7.99,1.48 -5.52,0 -10.04,-1.75 -13.56,-5.25 -3.52,-3.51 -5.28,-8 -5.28,-13.47 0,-3.54 0.8,-6.69 2.4,-9.45 1.61,-2.76 3.9,-4.96 6.89,-6.65 2.98,-1.66 6.2,-2.49 9.64,-2.49 2.92,0 5.75,0.61 8.46,1.85 2.72,1.24 5.06,2.99 7.03,5.28z" />
    <polygon class="fil3" points="613.38,273.18 620.1,273.18 620.1,308.7 613.38,308.7 " />
    <path class="fil3" d="M648.37 278.89c-3.3,0 -6.07,1.15 -8.3,3.44 -2.24,2.28 -3.36,5.19 -3.36,8.71 0,3.93 1.4,7.05 4.23,9.33 2.19,1.79 4.71,2.69 7.55,2.69 3.2,0 5.94,-1.16 8.19,-3.48 2.25,-2.31 3.39,-5.18 3.39,-8.57 0,-3.39 -1.14,-6.26 -3.42,-8.6 -2.26,-2.34 -5.03,-3.52 -8.28,-3.52zm0.07 -6.61c5.02,0 9.35,1.82 12.96,5.45 3.62,3.65 5.43,8.08 5.43,13.3 0,5.19 -1.79,9.58 -5.36,13.17 -3.57,3.59 -7.9,5.38 -12.98,5.38 -5.34,0 -9.77,-1.83 -13.3,-5.52 -3.53,-3.69 -5.29,-8.06 -5.29,-13.13 0,-3.4 0.82,-6.52 2.46,-9.38 1.64,-2.85 3.9,-5.11 6.79,-6.77 2.87,-1.67 5.97,-2.5 9.29,-2.5z" />
    <polygon class="fil3" points="677.19,273.17 683.67,273.17 698.88,296.55 698.88,273.17 705.63,273.17 705.63,308.7 699.13,308.7 683.94,285.39 683.94,308.7 677.19,308.7 " />
    <polygon class="fil3" points="717.73,273.17 737.12,273.17 737.12,279.79 724.45,279.79 724.45,286.21 737.12,286.21 737.12,292.72 724.45,292.72 724.45,302.06 737.12,302.06 737.12,308.7 717.73,308.7 " />
    <path class="fil3" d="M766.03 278l-5.01 4.42c-1.76,-2.45 -3.55,-3.67 -5.37,-3.67 -0.9,0 -1.62,0.25 -2.18,0.71 -0.56,0.47 -0.84,1.01 -0.84,1.61 0,0.59 0.2,1.16 0.6,1.69 0.54,0.71 2.19,2.23 4.95,4.56 2.59,2.16 4.14,3.53 4.7,4.08 1.36,1.39 2.33,2.72 2.92,3.98 0.56,1.26 0.85,2.64 0.85,4.14 0,2.92 -1.01,5.32 -3.01,7.21 -2.02,1.91 -4.64,2.86 -7.89,2.86 -2.53,0 -4.73,-0.61 -6.62,-1.86 -1.87,-1.24 -3.48,-3.19 -4.81,-5.84l5.68 -3.43c1.71,3.13 3.68,4.7 5.9,4.7 1.16,0 2.13,-0.34 2.92,-1.02 0.79,-0.67 1.19,-1.45 1.19,-2.34 0,-0.8 -0.3,-1.61 -0.9,-2.42 -0.59,-0.79 -1.91,-2.04 -3.94,-3.69 -3.86,-3.16 -6.36,-5.59 -7.5,-7.3 -1.13,-1.71 -1.68,-3.43 -1.68,-5.14 0,-2.46 0.93,-4.58 2.82,-6.34 1.88,-1.76 4.19,-2.64 6.94,-2.64 1.78,0 3.48,0.42 5.07,1.24 1.61,0.82 3.34,2.31 5.22,4.49z" />
    <polygon class="fil3" points="826.95,273.17 846.58,273.17 846.58,279.84 840.12,279.84 840.12,308.7 833.25,308.7 833.25,279.84 826.95,279.84 " />
    <polygon class="fil3" points="855.2,273.17 874.59,273.17 874.59,279.79 861.91,279.79 861.91,286.21 874.59,286.21 874.59,292.72 861.91,292.72 861.91,302.06 874.59,302.06 874.59,308.7 855.2,308.7 " />
    <path class="fil3" d="M917.51 279.42l-4.72 4.52c-3.22,-3.41 -6.84,-5.11 -10.86,-5.11 -3.4,0 -6.26,1.16 -8.59,3.48 -2.32,2.33 -3.49,5.19 -3.49,8.59 0,2.37 0.52,4.48 1.55,6.31 1.03,1.83 2.49,3.27 4.37,4.33 1.88,1.05 3.97,1.57 6.27,1.57 1.96,0 3.76,-0.38 5.39,-1.1 1.61,-0.74 3.4,-2.08 5.36,-4l4.58 4.77c-2.63,2.56 -5.1,4.34 -7.44,5.34 -2.32,0.99 -4.99,1.48 -7.98,1.48 -5.53,0 -10.05,-1.75 -13.57,-5.25 -3.51,-3.51 -5.28,-8 -5.28,-13.47 0,-3.54 0.8,-6.69 2.4,-9.45 1.61,-2.76 3.9,-4.96 6.89,-6.65 2.98,-1.66 6.21,-2.49 9.65,-2.49 2.92,0 5.74,0.61 8.46,1.85 2.72,1.24 5.06,2.99 7.02,5.28z" />
    <polygon class="fil3" points="927.41,273.17 933.89,273.17 949.09,296.55 949.09,273.17 955.85,273.17 955.85,308.7 949.35,308.7 934.16,285.39 934.16,308.7 927.41,308.7 " />
    <path class="fil3" d="M984.64 278.89c-3.29,0 -6.06,1.15 -8.3,3.44 -2.24,2.28 -3.36,5.19 -3.36,8.71 0,3.93 1.41,7.05 4.23,9.33 2.19,1.79 4.71,2.69 7.55,2.69 3.2,0 5.94,-1.16 8.19,-3.48 2.25,-2.31 3.39,-5.18 3.39,-8.57 0,-3.39 -1.14,-6.26 -3.42,-8.6 -2.26,-2.34 -5.03,-3.52 -8.28,-3.52zm0.07 -6.61c5.02,0 9.35,1.82 12.96,5.45 3.62,3.65 5.43,8.08 5.43,13.3 0,5.19 -1.79,9.58 -5.36,13.17 -3.57,3.59 -7.9,5.38 -12.98,5.38 -5.34,0 -9.76,-1.83 -13.29,-5.52 -3.54,-3.69 -5.3,-8.06 -5.3,-13.13 0,-3.4 0.82,-6.52 2.46,-9.38 1.64,-2.85 3.9,-5.11 6.79,-6.77 2.87,-1.67 5.97,-2.5 9.29,-2.5z" />
    <polygon class="fil3" points="1013.43,273.17 1020.19,273.17 1020.19,302.25 1030.05,302.25 1030.05,308.7 1013.43,308.7 " />
    <path class="fil3" d="M1055.84 278.89c-3.29,0 -6.06,1.15 -8.29,3.44 -2.24,2.28 -3.36,5.19 -3.36,8.71 0,3.93 1.4,7.05 4.23,9.33 2.19,1.79 4.7,2.69 7.54,2.69 3.21,0 5.94,-1.16 8.2,-3.48 2.25,-2.31 3.38,-5.18 3.38,-8.57 0,-3.39 -1.14,-6.26 -3.41,-8.6 -2.26,-2.34 -5.03,-3.52 -8.29,-3.52zm0.08 -6.61c5.02,0 9.35,1.82 12.95,5.45 3.62,3.65 5.43,8.08 5.43,13.3 0,5.19 -1.79,9.58 -5.35,13.17 -3.58,3.59 -7.91,5.38 -12.99,5.38 -5.34,0 -9.76,-1.83 -13.29,-5.52 -3.53,-3.69 -5.29,-8.06 -5.29,-13.13 0,-3.4 0.82,-6.52 2.46,-9.38 1.64,-2.85 3.9,-5.11 6.78,-6.77 2.88,-1.67 5.98,-2.5 9.3,-2.5z" />
    <path class="fil3" d="M1117.44 278.97l-4.75 4.71c-3.02,-3.19 -6.53,-4.79 -10.54,-4.79 -3.5,0 -6.42,1.17 -8.79,3.49 -2.35,2.31 -3.54,5.13 -3.54,8.45 0,3.43 1.23,6.33 3.68,8.72 2.45,2.38 5.47,3.58 9.07,3.58 2.33,0 4.31,-0.49 5.91,-1.47 1.61,-0.98 2.9,-2.52 3.87,-4.61l-10.29 0 0 -6.34 17.88 0 0.05 1.49c0,3.11 -0.81,6.06 -2.41,8.83 -1.62,2.8 -3.7,4.91 -6.27,6.38 -2.55,1.46 -5.55,2.19 -9,2.19 -3.69,0 -6.98,-0.8 -9.86,-2.4 -2.9,-1.6 -5.18,-3.88 -6.87,-6.85 -1.68,-2.96 -2.52,-6.16 -2.52,-9.59 0,-4.71 1.55,-8.79 4.65,-12.27 3.7,-4.14 8.49,-6.21 14.4,-6.21 3.1,0 5.98,0.57 8.68,1.72 2.27,0.96 4.49,2.62 6.66,4.97z" />
    <polygon class="fil3" points="1129.66,273.18 1136.38,273.18 1136.38,308.7 1129.66,308.7 " />
    <path class="fil3" d="M1180.59 279.42l-4.72 4.52c-3.22,-3.41 -6.84,-5.11 -10.86,-5.11 -3.4,0 -6.26,1.16 -8.59,3.48 -2.32,2.33 -3.49,5.19 -3.49,8.59 0,2.37 0.52,4.48 1.55,6.31 1.03,1.83 2.49,3.27 4.37,4.33 1.88,1.05 3.97,1.57 6.27,1.57 1.96,0 3.76,-0.38 5.39,-1.1 1.61,-0.74 3.4,-2.08 5.36,-4l4.58 4.77c-2.63,2.56 -5.1,4.34 -7.44,5.34 -2.32,0.99 -4.99,1.48 -7.98,1.48 -5.53,0 -10.05,-1.75 -13.57,-5.25 -3.51,-3.51 -5.28,-8 -5.28,-13.47 0,-3.54 0.8,-6.69 2.4,-9.45 1.61,-2.76 3.9,-4.96 6.89,-6.65 2.99,-1.66 6.21,-2.49 9.65,-2.49 2.92,0 5.74,0.61 8.46,1.85 2.72,1.24 5.06,2.99 7.02,5.28z" />
    <path class="fil3" d="M1204.77 282.6l-4.76 12.19 9.5 0 -4.73 -12.19zm-3.47 -9.43l6.86 0 13.67 35.53 -7.04 0 -2.78 -7.32 -14.5 0 -2.89 7.32 -7.04 0 13.71 -35.53z" />
    <path class="fil3" d="M1249.65 278l-5.01 4.42c-1.75,-2.45 -3.54,-3.67 -5.37,-3.67 -0.89,0 -1.61,0.25 -2.17,0.71 -0.57,0.47 -0.85,1.01 -0.85,1.61 0,0.59 0.2,1.16 0.6,1.69 0.54,0.71 2.2,2.23 4.96,4.56 2.58,2.16 4.14,3.53 4.7,4.08 1.36,1.39 2.33,2.72 2.91,3.98 0.57,1.26 0.86,2.64 0.86,4.14 0,2.92 -1.01,5.32 -3.02,7.21 -2.02,1.91 -4.64,2.86 -7.89,2.86 -2.53,0 -4.73,-0.61 -6.61,-1.86 -1.87,-1.24 -3.48,-3.19 -4.82,-5.84l5.69 -3.43c1.71,3.13 3.67,4.7 5.9,4.7 1.16,0 2.13,-0.34 2.92,-1.02 0.79,-0.67 1.19,-1.45 1.19,-2.34 0,-0.8 -0.31,-1.61 -0.9,-2.42 -0.6,-0.79 -1.92,-2.04 -3.94,-3.69 -3.87,-3.16 -6.36,-5.59 -7.5,-7.3 -1.13,-1.71 -1.69,-3.43 -1.69,-5.14 0,-2.46 0.94,-4.58 2.82,-6.34 1.88,-1.76 4.2,-2.64 6.95,-2.64 1.77,0 3.47,0.42 5.06,1.24 1.61,0.82 3.35,2.31 5.22,4.49z" />
   </g>
  </g>
 </g>
</svg>